<svg id="Layer_1" data-name="Layer 1" xmlns="http://www.w3.org/2000/svg" viewBox="0 0 73.5 66.52"><defs><style>.cls-1{fill:none;}.cls-2{fill:#f37;}</style></defs><title>home-24px</title><path class="cls-1" d="M0,0H24V24H0Z" transform="translate(24.75 21.59)"/><path class="cls-2" d="M4,40.94V21H20v20a4,4,0,0,0,4,4H36a4,4,0,0,0,4-4V13h6.79a2,2,0,0,0,1.32-3.47L14.67-20.57a4,4,0,0,0-5.35,0L-24.08,9.51A2,2,0,0,0-22.76,13H-16v28a4,4,0,0,0,4,4H0A4,4,0,0,0,4,40.94Z" transform="translate(24.75 21.59)"/></svg>